<svg width="379" height="120" viewBox="0 0 379 120" fill="none" xmlns="http://www.w3.org/2000/svg">
<path d="M339.475 6.74726C344.007 2.2488 349.462 0 355.838 0C362.213 0 367.667 2.24965 372.201 6.74726C376.733 11.2457 379 16.6878 379 23.0734C379 29.4591 376.733 34.913 372.201 39.4353C367.667 43.9593 362.212 46.2192 355.838 46.2192C349.463 46.2192 344.007 43.9585 339.475 39.4353C334.941 34.913 332.675 29.4591 332.675 23.0734C332.675 16.6878 334.941 11.2466 339.475 6.74726ZM355.802 39.0354C358.711 39.0354 361.389 38.3224 363.838 36.8947C366.285 35.4686 368.225 33.533 369.656 31.0902C371.085 28.6482 371.801 25.9748 371.801 23.0726C371.801 18.7196 370.238 14.9827 367.111 11.8626C363.984 8.74251 360.226 7.1829 355.838 7.1829C351.451 7.1829 347.693 8.74251 344.566 11.8626C341.439 14.9827 339.875 18.7324 339.875 23.1092C339.875 27.4859 341.439 31.2357 344.566 34.3557C347.693 37.4758 351.439 39.0354 355.802 39.0354ZM358.857 20.098C357.886 19.2761 356.857 18.8532 355.766 18.8285C354.675 18.8047 353.705 19.2037 352.857 20.0257C352.008 20.8484 351.585 21.8644 351.585 23.0734C351.585 24.0893 351.948 25.0576 352.675 25.9757C353.403 26.8955 354.445 27.3541 355.803 27.3541C356.966 27.3541 357.984 26.9431 358.857 26.1203C359.342 25.637 359.923 25.3946 360.603 25.3946H363.366C364.384 25.3946 365.136 25.8302 365.621 26.7006C366.105 27.571 366.082 28.4423 365.549 29.3127C364.482 30.9089 363.1 32.1784 361.403 33.122C359.705 34.0656 357.839 34.537 355.803 34.537C352.555 34.537 349.804 33.3764 347.549 31.0544C345.294 28.7324 344.24 25.928 344.385 22.6378C344.433 20.6545 344.979 18.8285 346.022 17.16C347.064 15.4915 348.445 14.1616 350.167 13.1695C351.887 12.1783 353.742 11.6584 355.731 11.6099C357.767 11.6099 359.658 12.094 361.404 13.0606C363.15 14.0289 364.555 15.3587 365.622 17.0511C366.106 17.8739 366.106 18.7086 365.622 19.5543C365.137 20.4017 364.385 20.8238 363.367 20.8238H360.749C359.973 20.8238 359.343 20.583 358.858 20.098H358.857Z" fill="#54BE92"/>
<path d="M28.4306 120C23.1738 120 16.0826 119.2 10.4745 114.08C6.0015 109.997 2.77445 104.161 1.14301 97.2048C0.120486 92.8493 0.104283 88.5465 0.0880792 84.3859C0.0838151 83.1368 0.079551 81.8903 0.0420271 80.6591C-0.0662805 77.0328 0.0539665 56.7017 0.1853 36.1876C0.221971 30.5099 0.250114 26.139 0.253525 24.6271L15.6042 24.6551C15.6016 26.1773 15.5727 30.5745 15.536 36.2863C15.4456 50.3577 15.2759 76.5495 15.3859 80.2005C15.4268 81.5636 15.4328 82.9437 15.4388 84.3271C15.4524 87.785 15.4643 91.0523 16.0895 93.7155C16.7333 96.4629 18.0808 100.264 20.8371 102.781C22.3534 104.166 25.0483 104.768 29.3397 104.674L29.6723 119.986C29.2723 119.995 28.857 120 28.4306 120Z" fill="#101328"/>
<path d="M67.1049 119.999C60.8827 119.975 53.7592 119.255 48.1025 114.092C43.6294 110.008 40.4024 104.172 38.7709 97.2167C37.7493 92.8612 37.7331 88.5593 37.7169 84.3986C37.7118 83.1496 37.7083 81.9022 37.6708 80.671C37.5497 76.6286 37.6665 72.2348 37.78 67.9865C37.8183 66.5554 37.8559 65.1362 37.884 63.7501L53.2313 64.0581C53.2031 65.4765 53.1639 66.9289 53.1247 68.3932C53.0172 72.4288 52.9055 76.6023 53.0147 80.2116C53.0556 81.5755 53.0616 82.9564 53.0675 84.3399C53.0803 87.7978 53.0931 91.0633 53.7174 93.7265C54.3613 96.4731 55.7087 100.276 58.465 102.792C59.9174 104.118 62.4366 104.666 67.1629 104.684L67.1049 119.999Z" fill="#101328"/>
<path d="M45.8595 48.3412C51.0405 48.3412 55.2405 44.1508 55.2405 38.9818C55.2405 33.8128 51.0405 29.6224 45.8595 29.6224C40.6786 29.6224 36.4786 33.8128 36.4786 38.9818C36.4786 44.1508 40.6786 48.3412 45.8595 48.3412Z" fill="#101328"/>
<path d="M293.776 119.999C282.03 119.999 272.487 115.566 265.413 106.824C258.737 98.5738 255.351 87.0711 255.351 72.6347C255.351 58.1983 258.737 46.6956 265.413 38.4458C272.486 29.7032 282.029 25.2703 293.776 25.2703C305.522 25.2703 315.065 29.733 322.064 38.5351C328.638 46.8037 331.971 58.2766 331.971 72.6347C331.971 86.9929 328.651 98.5287 322.106 106.769L322.084 106.797C315.059 115.558 305.535 119.999 293.776 119.999H293.776ZM293.776 40.5857C286.704 40.5857 281.487 42.9621 277.357 48.0663C272.941 53.5237 270.702 61.7889 270.702 72.6347C270.702 83.4805 272.94 91.7457 277.356 97.2031C281.487 102.307 286.703 104.684 293.776 104.684C300.848 104.684 306.011 102.319 310.087 97.2414C314.422 91.7738 316.62 83.495 316.62 72.6347C316.62 61.7744 314.405 53.5467 310.038 48.0527C305.987 42.9587 300.819 40.5857 293.776 40.5857H293.776Z" fill="#101328"/>
<path d="M227.434 100.156C221.098 104.743 213.644 105.925 206.992 103.398C202.941 101.867 199.667 99.0673 197.483 95.3916C208.63 93.6899 224.739 89.7675 236.372 78.9532C243.16 72.6398 246.409 63.1528 245.284 52.9171C244.166 42.6643 238.811 33.7899 230.965 29.1783C222.795 24.388 211.99 23.5371 202.08 26.898C192.119 30.2844 184.538 37.3209 180.743 46.7229C176.905 56.2609 175.967 67.6538 177.92 81.4121C174.628 81.1994 172.138 80.3571 170.466 78.9106C167.558 76.3666 165.972 71.0317 165.75 63.0422L165.699 61.2214C165.545 54.9676 165.383 48.5011 163.047 40.3755C160.659 32.0541 154.271 26.379 145.973 25.1878C137.752 24.0051 129.685 27.5957 125.395 34.3344C120.176 42.5367 119.869 56.5332 119.536 71.3465C119.289 82.9947 118.811 104.683 113.328 104.683C112.185 104.683 111.767 104.351 111.4 103.977C106.778 99.28 107.119 80.5868 107.349 68.2239C107.554 57.1203 107.733 47.5312 105.823 40.8264C103.554 32.905 97.3287 26.9661 89.551 25.3324C81.7221 23.6818 73.7313 26.6853 68.1794 33.3474L63.2757 39.2439L75.0787 49.0287L79.9824 43.1408C81.8927 40.852 84.1612 39.848 86.387 40.3159C88.5703 40.7754 90.3612 42.5792 91.052 45.0211C92.3397 49.5307 92.1691 58.89 91.9986 67.9431C91.6575 86.3641 91.3078 105.423 100.45 114.706C103.853 118.169 108.304 119.998 113.328 119.998C120.048 119.998 128.832 116.731 132.456 101.194C134.426 92.72 134.656 82.0247 134.887 71.6869C135.125 60.7534 135.424 47.1483 138.358 42.5452C139.56 40.6563 141.948 40.0777 143.782 40.3415C145.351 40.5712 147.397 41.4901 148.293 44.5957C150.092 50.841 150.212 55.827 150.357 61.5958L150.399 63.4761C150.758 76.0773 154.015 84.8921 160.36 90.4397C165.562 94.9662 172.428 97.0508 181.271 96.7615C184.674 106.538 191.872 114.051 201.534 117.718C205.551 119.241 209.772 119.99 214.011 119.99C221.806 119.99 229.677 117.454 236.449 112.553L242.657 108.052L233.651 95.6554L227.434 100.156ZM194.985 52.4406C197.816 45.4296 203.743 42.5111 207.026 41.3965C209.423 40.5882 211.922 40.1798 214.326 40.1798C217.593 40.1798 220.697 40.9285 223.179 42.3835C226.812 44.5191 229.438 49.1903 230.027 54.5762C230.607 59.8855 229.072 64.8035 225.908 67.7474C217.354 75.7029 205.073 78.8425 193.296 80.5017C191.539 69.0152 192.111 59.5877 194.985 52.4406Z" fill="#101328"/>
</svg>
