<svg width="18" height="21" viewBox="0 0 18 21" fill="none" xmlns="http://www.w3.org/2000/svg">
<path d="M4.5 11.5012V11.5C4.5 11.3428 4.54777 11.2343 4.64156 11.1406C4.73528 11.0468 4.84308 10.9996 4.99882 11H5C5.15715 11 5.26567 11.0478 5.35945 11.1416C5.45317 11.2353 5.50037 11.3431 5.5 11.4988V11.5C5.5 11.6572 5.45223 11.7657 5.35845 11.8594C5.26473 11.9532 5.15692 12.0004 5.00118 12H5C4.84285 12 4.73434 11.9522 4.64056 11.8584C4.54683 11.7647 4.49963 11.6569 4.5 11.5012ZM8.99882 11H9C9.15715 11 9.26567 11.0478 9.35945 11.1416C9.45317 11.2353 9.50037 11.3431 9.5 11.4988V11.5C9.5 11.6572 9.45223 11.7657 9.35845 11.8594C9.26473 11.9532 9.15692 12.0004 9.00118 12H9C8.84285 12 8.73434 11.9522 8.64056 11.8584C8.54683 11.7647 8.49963 11.6569 8.5 11.5012V11.5C8.5 11.3428 8.54777 11.2343 8.64156 11.1406C8.73528 11.0468 8.84308 10.9996 8.99882 11ZM12.9988 11H13C13.1572 11 13.2657 11.0478 13.3594 11.1416C13.4532 11.2353 13.5004 11.3431 13.5 11.4988V11.5C13.5 11.6572 13.4522 11.7657 13.3584 11.8594C13.2647 11.9532 13.1569 12.0004 13.0012 12H13C12.8428 12 12.7343 11.9522 12.6406 11.8584C12.5468 11.7647 12.4996 11.6569 12.5 11.5012V11.5C12.5 11.3428 12.5478 11.2343 12.6416 11.1406C12.7353 11.0468 12.8431 10.9996 12.9988 11ZM0.500002 18.5006V18.5V4.5C0.500002 4.08379 0.642485 3.73962 0.941555 3.44055C1.24061 3.1415 1.58424 2.9995 1.99939 3H2H3H3.5V2.5V1H4.5V2.5V3H5H13H13.5V2.5V1H14.5V2.5V3H15H16C16.4162 3 16.7604 3.14248 17.0594 3.44155C17.3585 3.74061 17.5005 4.08424 17.5 4.49939V4.5V18.5C17.5 18.9162 17.3575 19.2604 17.0584 19.5594C16.7594 19.8585 16.4158 20.0005 16.0006 20H16H2C1.58379 20 1.23962 19.8575 0.940555 19.5584C0.641503 19.2594 0.499498 18.9158 0.500002 18.5006ZM1.5 18.5V19H2H16H16.5V18.5V8.5V8H16H2H1.5V8.5V18.5ZM1.5 6.5V7H2H16H16.5V6.5V4.5V4H16H2H1.5V4.5V6.5Z" fill="#333896" stroke="#54BE92"/>
</svg>
